<svg xmlns="http://www.w3.org/2000/svg" width="375" viewBox="0 0 375 375" height="375" version="1.0"><g fill="#FFF"><g><g><path d="M 2.917969 -48.953125 L 2.917969 -45.800781 C 7.410156 -45.488281 8.90625 -44.621094 8.90625 -41.859375 L 8.90625 -4.652344 C 8.90625 6.621094 3.941406 10.167969 -1.578125 10.484375 L -1.578125 13.953125 C 13.324219 13.953125 21.835938 7.488281 21.835938 -11.195312 L 21.835938 -41.859375 C 21.835938 -44.621094 23.335938 -45.488281 27.75 -45.800781 L 27.75 -48.953125 C 19.550781 -48.71875 11.117188 -48.71875 2.917969 -48.953125 Z M 2.917969 -48.953125" transform="translate(44.701 217.039)"/></g></g></g><g fill="#FFF"><g><g><path d="M 45.644531 -11.507812 L 31.53125 -49.347656 L 24.042969 -49.347656 L 10.167969 -8.75 C 8.90625 -5.125 6.621094 -3.546875 0.789062 -3.152344 L 0.789062 0 C 7.960938 -0.238281 15.371094 -0.238281 22.703125 0 L 22.703125 -3.152344 C 16.554688 -3.390625 12.851562 -4.257812 13.953125 -7.566406 L 16.554688 -15.53125 L 31.058594 -15.53125 L 34.054688 -7.332031 C 35.238281 -4.179688 32.242188 -3.390625 28.222656 -3.152344 L 28.222656 0 C 37.050781 -0.238281 45.644531 -0.238281 54.550781 0 L 54.550781 -3.152344 C 49.585938 -3.546875 47.773438 -5.675781 45.644531 -11.507812 Z M 17.660156 -19 L 23.253906 -36.5 L 29.71875 -19 Z M 17.660156 -19" transform="translate(74.42 217.039)"/></g></g></g><g fill="#FFF"><g><g><path d="M 31.058594 -48.953125 L 31.058594 -45.800781 C 36.261719 -45.40625 40.441406 -44.304688 40.441406 -40.519531 L 40.441406 -21.441406 L 20.890625 -48.953125 C 14.585938 -48.71875 8.277344 -48.71875 2.050781 -48.953125 L 2.050781 -45.800781 C 6.464844 -45.488281 9.460938 -43.199219 9.460938 -39.023438 L 9.460938 -8.515625 C 9.460938 -4.652344 5.28125 -3.546875 1.183594 -3.152344 L 1.183594 0 C 7.726562 -0.238281 15.449219 -0.238281 23.097656 0 L 23.097656 -3.152344 C 17.738281 -3.546875 13.558594 -4.652344 13.558594 -8.515625 L 13.558594 -37.761719 L 40.519531 0 L 44.539062 0 L 44.539062 -40.519531 C 44.539062 -44.304688 48.71875 -45.40625 52.898438 -45.800781 L 52.898438 -48.953125 C 46.273438 -48.71875 38.550781 -48.71875 31.058594 -48.953125 Z M 31.058594 -48.953125" transform="translate(129.761 217.039)"/></g></g></g><g fill="#FFF"><g><g><path d="M 24.28125 -48.953125 C 17.105469 -48.953125 10.640625 -48.640625 2.601562 -48.953125 L 2.601562 -45.800781 C 6.226562 -45.488281 7.726562 -44.855469 7.726562 -42.019531 L 7.726562 -7.253906 C 7.726562 -4.574219 5.914062 -4.019531 1.972656 -3.152344 L 1.972656 0 C 5.675781 -0.550781 9.144531 -1.417969 14.191406 -1.417969 C 20.8125 -1.417969 25.148438 0 28.929688 0 C 33.820312 0 51.082031 -2.128906 51.082031 -24.28125 C 51.082031 -42.570312 39.730469 -48.953125 24.28125 -48.953125 Z M 24.910156 -3.546875 C 23.570312 -3.546875 20.652344 -3.785156 20.652344 -6.9375 L 20.652344 -45.566406 C 21.996094 -45.722656 23.097656 -45.722656 23.648438 -45.722656 C 32.320312 -45.722656 36.65625 -38.3125 36.65625 -24.4375 C 36.65625 -12.535156 33.976562 -3.546875 24.910156 -3.546875 Z M 24.910156 -3.546875" transform="translate(183.84 217.039)"/></g></g></g><g fill="#FFF"><g><g><path d="M 42.175781 -14.503906 L 39.101562 -14.503906 L 35.789062 -9.144531 C 33.425781 -5.203125 31.058594 -3.546875 25.148438 -3.546875 L 24.28125 -3.546875 C 21.757812 -3.546875 20.652344 -4.335938 20.652344 -7.09375 L 20.652344 -23.648438 L 28.222656 -23.648438 C 32.242188 -23.648438 33.582031 -21.996094 34.449219 -18.761719 L 36.894531 -18.761719 C 36.5 -23.492188 36.5 -27.355469 36.894531 -32.085938 L 34.449219 -32.085938 C 33.582031 -28.695312 32.164062 -27.433594 28.222656 -27.433594 L 20.652344 -27.433594 L 20.652344 -43.359375 C 20.652344 -44.933594 21.441406 -45.722656 22.941406 -45.722656 L 26.722656 -45.722656 C 33.109375 -45.722656 34.527344 -43.832031 36.894531 -39.417969 L 37.839844 -37.683594 L 40.835938 -37.683594 L 39.417969 -47.535156 C 39.257812 -48.71875 39.101562 -48.953125 38.074219 -48.953125 L 1.972656 -48.953125 L 1.972656 -45.800781 C 6.386719 -45.488281 7.726562 -44.933594 7.726562 -42.648438 L 7.726562 -7.09375 C 7.726562 -4.335938 6.386719 -3.46875 1.972656 -3.152344 L 1.972656 0 C 14.425781 -0.394531 26.410156 -0.394531 39.496094 0 C 39.417969 -4.652344 40.363281 -9.460938 42.175781 -14.503906 Z M 42.175781 -14.503906" transform="translate(238.076 217.039)"/></g></g></g><g fill="#FFF"><g><g><path d="M 41.386719 -3.785156 L 39.335938 -4.097656 C 41.070312 -7.726562 43.042969 -11.351562 45.40625 -14.585938 L 40.835938 -14.585938 L 37.050781 -10.011719 C 32.953125 -4.886719 29.011719 -3.46875 22.074219 -3.46875 L 17.34375 -3.46875 L 44.933594 -48.953125 L 19.785156 -48.953125 C 15.214844 -48.953125 13.402344 -48.875 10.5625 -49.429688 L 6.304688 -49.429688 L 3.625 -38.074219 L 7.410156 -38.074219 C 9.539062 -43.199219 11.351562 -45.40625 16.710938 -45.40625 L 29.167969 -45.40625 L 1.578125 0 C 15.449219 -0.238281 29.246094 -0.238281 43.121094 0 L 43.121094 -2.285156 C 43.121094 -3.074219 42.410156 -3.546875 41.386719 -3.785156 Z M 41.386719 -3.785156" transform="translate(282.616 217.039)"/></g></g></g></svg>